<svg xmlns="http://www.w3.org/2000/svg" xmlns:xlink="http://www.w3.org/1999/xlink" viewBox="0 0 32 32"><defs><radialGradient id="a" cx="10.93" cy="-.62" r="13.95" gradientTransform="matrix(.97 -.25 .15 .66 .39 15.94)" gradientUnits="userSpaceOnUse"><stop offset=".22" stop-color="#ec5332"/><stop offset=".52" stop-color="#ea5131"/><stop offset=".67" stop-color="#e24b2e"/><stop offset=".79" stop-color="#d54128"/><stop offset=".89" stop-color="#c23320"/><stop offset=".98" stop-color="#a92016"/><stop offset="1" stop-color="#a31b13"/></radialGradient><radialGradient id="b" cx="14.97" cy="4.56" r="4.21" gradientTransform="matrix(.88 -.5 .43 .86 -.21 21.88)" xlink:href="#a"/><radialGradient id="c" cx="16.33" cy="3.28" r="5.48" gradientTransform="matrix(.88 -.5 .43 .86 .49 22.3)" xlink:href="#a"/><radialGradient id="d" cx="16.34" cy="3.28" r="5.48" gradientTransform="matrix(.88 -.5 .43 .86 .49 22.31)" xlink:href="#a"/><radialGradient id="e" cx="13.56" cy="3.37" r="2.69" gradientTransform="matrix(.88 -.5 .43 .86 .13 20.94)" xlink:href="#a"/><radialGradient id="f" cx="7.72" cy=".71" r="4.67" gradientTransform="matrix(.88 -.5 .43 .86 .6 17.48)" xlink:href="#a"/><radialGradient id="g" cx="24.26" cy="-.99" r="2.37" gradientTransform="matrix(1 0 0 1.07 0 13.47)" xlink:href="#a"/></defs><g style="isolation:isolate"><path d="M3.15 19.86c-3-8.43 11.72-16 18.93-9.36s9 11.58 5.38 12.14S6 28 3.15 19.86z" fill="url(#a)"/><path d="M24.82 13.27l-.53.54-.24.07c-1.35.51-2.16.72-6.88.32a6 6 0 00-3.2.44c-2.72 1.15-4.18 3.93-3.26 6.2s4.1 3.28 6.85 2.21a5.53 5.53 0 002.94-2.59 14.27 14.27 0 014.61-4.37 6.83 6.83 0 011.67-.54 29.73 29.73 0 00-1.96-2.28z" fill="#602108" opacity=".8"/><path d="M27.83 11.71a1 1 0 00.73.61c.53.09 1.62 1.39.29 2s-2-.35-3.83.43-2.83-.53-1.05-1.58c0 0 1.63-.63 1.7-1.34A1.39 1.39 0 0127 10.32c1.13-.32.83 1.39.83 1.39z" fill="#e6e6e6"/><path d="M24.42 15c1.52-.5-.06-.39-.4-.54-1.44-.62.64-1.58-.28-1.22-1.31.52-2.11.73-6.72.33a5.65 5.65 0 00-3.13.45c-2.66 1.18-4.08 4-3.18 6.33s3.79 3.25 6.45 2.08a6.07 6.07 0 002.17-1.61 8.39 8.39 0 00.7-1c.86-1.43 2.86-4.31 4.39-4.82z" fill="url(#b)"/><g style="mix-blend-mode:multiply" opacity=".4"><path d="M27.38 11.53a1 1 0 00.72.6h.08a1.15 1.15 0 01-.35-.44s.26-1.48-.65-1.43a1.79 1.79 0 01.2 1.27z" fill="url(#c)"/><path d="M28.56 12.32h-.15c.51.37 1.06 1.32 0 1.82-1.31.61-2-.35-3.77.42a2.34 2.34 0 01-.59.25c-1.5.49-3.47 3.32-4.32 4.7a7.89 7.89 0 01-.68 1 6 6 0 01-2.14 1.59 4.72 4.72 0 01-6-1.43c1 2.1 3.77 2.9 6.31 1.78a6.07 6.07 0 002.17-1.61 8.39 8.39 0 00.7-1c.87-1.4 2.87-4.28 4.39-4.78a2.33 2.33 0 00.6-.25c1.83-.78 2.49.19 3.83-.43s.18-1.97-.35-2.06z" fill="url(#d)"/></g><path d="M11.44 20.74S10.23 18 12 16c2.57-2.92 5.83-1.68 7.39-1.78.24 0 .31.06.15.14-1.4.75-3.87.29-5.36 1.57-1.69 1.44-.78 5.92-2.74 4.81z" style="mix-blend-mode:screen" fill="url(#e)"/><path d="M4.6 20.91S2.76 19 3.78 15.43C4.69 12.27 9.3 7.6 17 8.75c.59.09 1.29.3.47.31-1.83 0-5.09.32-7.06 2.16-2.84 2.66-4.19 4.49-3 6.26s-1.61.9-2.34 2.14.74 2.53-.47 1.29z" style="mix-blend-mode:screen" fill="url(#f)"/><path d="M21.54 14.07c1.11-.14 4-.8 4.4-2.07a3.42 3.42 0 01.2-1c.26-.42 1.09-.54 1 .15 0 0-.68-.48-.77.92 0 .72-2 2.11-4.68 2.11-.24 0-.57-.05-.15-.11z" style="mix-blend-mode:screen" fill="url(#g)"/></g></svg>