<svg xmlns="http://www.w3.org/2000/svg" viewBox="0 0 32 32"><defs><style>.cls-5{fill:#e87a75}</style></defs><g style="isolation:isolate"><path d="M28.65 9.62a10.7 10.7 0 00-3.33-3 4.78 4.78 0 00-2.19-.79c-4.08-.07-9.49-.51-15.48 4.84a15.77 15.77 0 00-2.52 2.87 13.34 13.34 0 00-2.65 9.36 7.88 7.88 0 004 6.11 9.18 9.18 0 006 1 23.55 23.55 0 003.5-.88 17.44 17.44 0 012.42-.63 2.82 2.82 0 011.61.13 3 3 0 001.71.2c3.34-.5 7.52-5.28 8.76-10a10.53 10.53 0 00-1.83-9.21z" id="Background_Shadow" data-name="Background &amp; Shadow" style="mix-blend-mode:multiply" fill="#ccc"/><g id="Icon"><path d="M27.69 7.83C25.92 5.35 23.61 4 22.25 4h-.7a29 29 0 00-5.39.22 18 18 0 00-9.8 5.08c-3.62 3.44-5.53 8.27-5 12.61a8.36 8.36 0 004 6.46 8.84 8.84 0 006 1 22.78 22.78 0 003.52-.93 16.87 16.87 0 012.43-.67 2.71 2.71 0 011.62.14 2.88 2.88 0 001.72.21c3.36-.53 7.56-5.58 8.81-10.61a11.61 11.61 0 00-1.77-9.68z" fill="#901922"/><path d="M22.14 3.87C18 3.8 12.59 3.33 6.57 9S-.18 23.8 5.46 27s10.71-1.8 13.54-.47 8.4-4 9.9-10C30.83 9 24.61 3.91 22.14 3.87z" fill="#f4b3ad"/><path class="cls-5" d="M3.6 22.38s1.13 6.06 8 4.35 6.35-5.2 7.54-7.55-.58-5.58-5.09-3.91-9.05.01-8.66-2.47-3.81 3.14-1.79 9.58z"/><path d="M18.25 13.58a5.51 5.51 0 01-3.32-.48 1.33 1.33 0 01-.31-2 5.7 5.7 0 016.33-1 1.33 1.33 0 01.31 1.95 5.5 5.5 0 01-3.01 1.53z" fill="#fff"/><path class="cls-5" d="M17.62 12.75a2.94 2.94 0 01-1.77-.25.71.71 0 01-.16-1 3 3 0 013.38-.53.71.71 0 01.16 1 2.93 2.93 0 01-1.61.78zm-11.41-.21s1 3.75 7 2a.65.65 0 00.22-.93c-.46-.83-.77-2.27 1.5-3.46 3.42-1.79-1.6-.66-1.57-2.22s-1.24-2-4-.16-3.46 3.74-3.15 4.77zm14.4 6.72a4.63 4.63 0 00-.31-3c-.19-.42-.7-1.36.89-2.41a2.4 2.4 0 001.05-2.13c-.2-1.62 1.72.67 2.49-.11s4.27-1 3.8 2.14-2.42 9.46-7.77 11.56c-1.25.51-.52-4.5-.15-6.05zM17.49 8.71c1-.11 3.43-.16 4.44 1.46 0 0 1.84 1.09 2.28.48a2.86 2.86 0 012.87-.32c.25.1.56 0 .29-.68a8.17 8.17 0 00-3.62-4.21c-3.12-1.59-8.81-.21-9.63.08s.63 1 .52 1.77 1.16.65 2 1.14a1.77 1.77 0 00.85.28z"/><path d="M13.76 8.87c-1.27-1.74-5.37-.47-8 4.25-2 3.51-.82 7.35.26 9.66H6a3.9 3.9 0 00.62 1 4.33 4.33 0 005.81.21c1.13-1.2 1-3.41-1.79-5.23a2.61 2.61 0 01-.89-4l.25-.3c2.09-2.84 4.42-4.68 3.76-5.59z" style="mix-blend-mode:screen" fill="#b13e3b"/></g></g></svg>