<svg xmlns="http://www.w3.org/2000/svg" xmlns:xlink="http://www.w3.org/1999/xlink" viewBox="0 0 32 32"><defs><radialGradient id="radial-gradient" cx="706.2" cy="-1745.1" r="6.49" gradientTransform="matrix(.93 -.36 .28 .73 -154.7 1556.31)" gradientUnits="userSpaceOnUse"><stop offset=".46" stop-color="#795226"/><stop offset=".55" stop-color="#775026"/><stop offset=".58" stop-color="#704925"/><stop offset=".59" stop-color="#6c4525"/><stop offset=".65" stop-color="#512e17"/><stop offset=".85" stop-color="#40281d"/><stop offset="1" stop-color="#100a07"/></radialGradient><radialGradient id="radial-gradient-2" cx="706.39" cy="-2557.6" r="7.19" gradientTransform="matrix(.93 -.36 .28 .74 78.63 2167.39)" gradientUnits="userSpaceOnUse"><stop offset=".42" stop-color="#c09b79"/><stop offset=".5" stop-color="#bf9a77"/><stop offset=".53" stop-color="#ba9570"/><stop offset=".55" stop-color="#b28c65"/><stop offset=".57" stop-color="#a68054"/><stop offset=".59" stop-color="#97703e"/><stop offset=".59" stop-color="#966f3d"/><stop offset=".76" stop-color="#795226"/><stop offset=".79" stop-color="#775026"/><stop offset=".8" stop-color="#704925"/><stop offset=".8" stop-color="#6c4525"/><stop offset=".9" stop-color="#512e17"/><stop offset="1" stop-color="#40281d"/></radialGradient><radialGradient id="radial-gradient-3" cx="-25" cy="1573.38" r="6.49" gradientTransform="matrix(.96 .3 -.23 .75 402.96 -1160.49)" xlink:href="#radial-gradient"/><radialGradient id="radial-gradient-4" cx="-24.9" cy="1704.55" r="7.19" gradientTransform="matrix(.96 .3 -.23 .76 436.25 -1271.33)" xlink:href="#radial-gradient-2"/><radialGradient id="radial-gradient-5" cx="244.57" cy="-809.76" r="5.49" gradientTransform="matrix(1 -.17 .13 .77 -124.83 680.16)" xlink:href="#radial-gradient"/><radialGradient id="radial-gradient-6" cx="244.72" cy="-1355.42" r="6.08" gradientTransform="matrix(1 -.17 .13 .78 -51.67 1110.68)" xlink:href="#radial-gradient-2"/><style>.cls-2{fill:#ccc;mix-blend-mode:multiply}</style></defs><g style="isolation:isolate"><g id="Background_Shadow" data-name="Background &amp; Shadow"><path class="cls-2" d="M22.38 21c0-.12-.1-.23-.16-.35s-.07-.24-.11-.36c-1.11-2.86-5-4.06-8.61-2.68s-5.71 4.81-4.61 7.67c0 .12.1.23.16.34s.07.25.12.37c1.13 2.91 5 4.15 8.65 2.77s5.68-4.89 4.56-7.76zm-6.12 3.75a2.61 2.61 0 01-3.1-.68A2.56 2.56 0 0115 21.46a2.62 2.62 0 013.11.71 2.56 2.56 0 01-1.86 2.55zm-.39-13.52c0-.11 0-.22-.08-.33s0-.22 0-.32C15.31 8 12.26 6.29 9 6.85S3.32 10 3.76 12.63c0 .11 0 .21.08.32s0 .22 0 .33c.46 2.67 3.51 4.38 6.82 3.82s5.66-3.19 5.21-5.87zm-8.3 1.08a2.23 2.23 0 012-1.89 2.23 2.23 0 012.5 1.13 2.23 2.23 0 01-2 1.87 2.23 2.23 0 01-2.5-1.11z"/><path class="cls-2" d="M25.19 10.47c-3.8-1.14-7.62.37-8.53 3.38 0 .12-.06.25-.09.37s-.1.24-.14.37c-.92 3.07 1.41 6.48 5.21 7.63s7.64-.41 8.56-3.48c0-.13.06-.25.09-.38s.1-.24.13-.36c.92-3-1.42-6.38-5.23-7.53zM22.92 18a2.63 2.63 0 01-2.06-2.48 2.64 2.64 0 013.09-1A2.64 2.64 0 0126 17.07a2.63 2.63 0 01-3.08.93z"/></g><g id="Icon"><path d="M13.13 17.38c-3.71 1.42-5.79 5-4.65 8s5.08 4.27 8.79 2.85 5.79-5 4.65-8-5.08-4.23-8.79-2.85zM16 24.86a2.51 2.51 0 01-3.34-1.08 2.51 2.51 0 011.77-3 2.51 2.51 0 013.34 1.08 2.51 2.51 0 01-1.77 3z" fill="url(#radial-gradient)"/><path d="M12.89 16.75c-3.71 1.42-5.81 5-4.68 7.89s5 4.17 8.75 2.76 5.81-5 4.68-7.89-5.04-4.18-8.75-2.76zm2.81 7.35a2.5 2.5 0 01-3.33-1 2.5 2.5 0 011.78-3 2.5 2.5 0 013.33 1 2.5 2.5 0 01-1.79 3z" fill="url(#radial-gradient-2)"/><path d="M24.54 10.27c-3.8-1.14-7.64.42-8.56 3.48s1.41 6.48 5.21 7.63 7.64-.41 8.56-3.48-1.41-6.48-5.21-7.63zm-2.31 7.67a2.51 2.51 0 01-2-2.9 2.51 2.51 0 013.25-1.32 2.51 2.51 0 012 2.9 2.51 2.51 0 01-3.25 1.32z" fill="url(#radial-gradient-3)"/><path d="M24.73 9.63c-3.8-1.14-7.62.37-8.53 3.38s1.44 6.39 5.24 7.53 7.62-.37 8.53-3.38-1.43-6.39-5.24-7.53zm-2.27 7.53a2.5 2.5 0 01-2-2.86 2.5 2.5 0 013.26-1.3 2.5 2.5 0 012 2.86 2.5 2.5 0 01-3.25 1.3z" fill="url(#radial-gradient-4)"/><path d="M8.59 6.57C5.28 7.14 3 9.76 3.42 12.43s3.51 4.38 6.82 3.82 5.63-3.19 5.17-5.86S11.9 6 8.59 6.57zm1.14 6.68a2.12 2.12 0 01-2.59-1.45 2.12 2.12 0 012-2.23A2.12 2.12 0 0111.69 11a2.12 2.12 0 01-1.96 2.25z" fill="url(#radial-gradient-5)"/><path d="M8.5 6c-3.31.56-5.64 3.15-5.19 5.77s3.49 4.3 6.81 3.73 5.64-3.15 5.19-5.77S11.81 5.45 8.5 6zm1.12 6.56A2.11 2.11 0 017 11.15 2.11 2.11 0 019 9a2.11 2.11 0 012.59 1.42 2.11 2.11 0 01-1.98 2.15z" fill="url(#radial-gradient-6)"/></g></g></svg>