<svg xmlns="http://www.w3.org/2000/svg" viewBox="0 0 32 32"><g style="isolation:isolate"><path d="M27.95 5.28a7.41 7.41 0 00-2.82 2.78 3.44 3.44 0 01-1.57 1.59 5.46 5.46 0 01-1.4.28c-1.44.16-2.92.31-6.09 3.78-3.93 4.3-2.28 3.35-5.72 4-4.18.85-3.69.85-5.83 3.32a8.58 8.58 0 01-3.13 2.32l.48 1.24.28.71 1 2.49.23.71.38.87a10 10 0 004.49-3.05c1.88-2.16 1.07-2 4.87-2.75A10.76 10.76 0 0017 22.3c1.11-.71.58-.95 2.73-3.3 2.71-3 3.78-3.08 5-3.22a7 7 0 001.78-.37A5 5 0 0029 13.14 5.42 5.42 0 0131 11z" data-name="Background &amp; Shadow" style="mix-blend-mode:multiply" fill="#ccc"/><path d="M26.93 11.34A3.42 3.42 0 0125.45 13a5.72 5.72 0 01-1.4.36c-1.44.24-2.92.48-5.89 4.1C14.48 22 16.13 21 12.7 21.9c-4.15 1.1-3.58 1.27-5.58 3.83a8.07 8.07 0 01-3.8 2.8l.44.84a10.09 10.09 0 004.33-3.29c1.75-2.25.87-2.23 4.65-3.22a10.91 10.91 0 003.87-1.5c1.08-.77.48-1.06 2.49-3.52 2.55-3.1 3.61-3.28 4.84-3.48a7.2 7.2 0 001.77-.47A5 5 0 0028 11.51a5.73 5.73 0 012-2.3l-.37-.81a7.33 7.33 0 00-2.7 2.94z" fill="#772f3a"/><path d="M27.21 9.86a5.86 5.86 0 01-2.71 2.75 8 8 0 01-2 .53c-1.11.19-2 .33-4.32 3.18-2 2.46-1.46 2.82-2.64 3.66a11.88 11.88 0 01-4.17 1.66c-3.59.94-2.55.81-4.19 2.91A11.19 11.19 0 013 27.88l.31.66a8.07 8.07 0 003.8-2.8c2-2.57 1.43-2.75 5.58-3.83 3.43-.9 1.77.05 5.46-4.44 3-3.61 4.45-3.86 5.89-4.1a5.72 5.72 0 001.4-.36 3.42 3.42 0 001.48-1.67 7.33 7.33 0 012.7-2.94l-.34-.72a4.59 4.59 0 00-2.07 2.18zM23.8 6.72a3.42 3.42 0 01-1.48 1.67 5.61 5.61 0 01-1.39.36C19.49 9 18 9.23 15 12.85c-3.69 4.49-2 3.54-5.46 4.43C5.43 18.37 6 18.55 4 21.12a8.59 8.59 0 01-3 2.48l.56 1.19.32.69A7.47 7.47 0 005 23.06c2.12-2.72 1.71-3 6.05-4.14 3.16-.83 1.5.13 5-4.14 2.94-3.58 4.58-4.1 6.41-4.4a4.83 4.83 0 001.21-.31 2.78 2.78 0 001.07-1.3 8 8 0 013.41-3.48l-.31-.69-.57-1.2a7 7 0 00-3.47 3.32z" fill="#f4bda1"/><path d="M7.21 24.53c1.64-2.1.6-2 4.19-2.91A11.88 11.88 0 0015.58 20c1.17-.84.62-1.19 2.64-3.66 2.34-2.85 3.21-3 4.32-3.18a8 8 0 002-.53 5.86 5.86 0 002.71-2.75 4.59 4.59 0 012.08-2.18L28.2 5.3a8 8 0 00-3.41 3.48 2.78 2.78 0 01-1.07 1.3 4.83 4.83 0 01-1.21.31c-1.84.3-3.47.82-6.41 4.4-3.5 4.27-1.85 3.32-5 4.14-4.38 1.13-3.97 1.41-6.1 4.13a7.47 7.47 0 01-3.13 2.42L3 27.88a11.19 11.19 0 004.21-3.35z" fill="#be4b5c"/><path d="M7 23.71c1.64-2.1.6-2 4.19-2.91a11.83 11.83 0 004.17-1.66c1.17-.83.64-1.14 2.64-3.65 2.34-2.85 3.21-3 4.32-3.18a8 8 0 002-.53A5.86 5.86 0 0027 9a4.16 4.16 0 012-2l-1.13-2.4a7.48 7.48 0 00-3.3 3.37 2.78 2.78 0 01-1.07 1.3 4.85 4.85 0 01-1.21.31c-1.83.3-3.47.82-6.41 4.4-3.5 4.27-1.85 3.32-5 4.14-4.34 1.14-3.93 1.42-6.05 4.14a8.18 8.18 0 01-3.23 2.53l1.13 2.4A11.89 11.89 0 007 23.71z" style="mix-blend-mode:multiply" fill="#f4bda1"/></g></svg>