<svg xmlns="http://www.w3.org/2000/svg" viewBox="0 0 32 32"><defs><style>.cls-5{fill:#8cc125}.cls-7{fill:#465b38}</style></defs><g style="isolation:isolate"><path d="M28.14 11.21A2.59 2.59 0 0027 9.44l-.13-.08c-1.44-1.36-2.53-.62-2.12-1.75s-.46-.23-1 .47a.67.67 0 01-.32.24c-1.47.51-1.51 1.21-1.51 1.21a1.38 1.38 0 00-.8.67c-.6 3.44-2.93 9.62-8.5 11.9a24.23 24.23 0 00-8.8 5.67c-.91 1 .39.5.62.38 2.62-1.29 6.19-1.46 9.54-2.34 6.45-1.69 15.62-7.2 14.16-14.6z" id="Background_Shadow" data-name="Background &amp; Shadow" style="mix-blend-mode:multiply" fill="#b3b3b3"/><g id="Icon"><path d="M4 27.46a25.11 25.11 0 018.58-6.64C18.13 18 20 11.37 20.29 7.76c.09-1 6.2-3.46 7.32.41 2.16 7.52-6.8 14-13.29 16.35-3.38 1.21-7.06 1.71-9.65 3.27-.23.14-1.51.82-.67-.33z" fill="#74ab1f"/><path d="M14.77 23.36A3.07 3.07 0 0016.54 22 13.63 13.63 0 0120 18.44c1.24-.81 1.56-2.29 2.51-3.44.45-.54 1-1 1.46-1.45a4 4 0 00.82-1.62 14.11 14.11 0 00.68-1.9c.09-.41 0-1.29.51-1.41.32.6.89 3.51-1 6.91A19.16 19.16 0 0121.17 20c-4 3.2-7.03 3.58-6.4 3.36z" fill="#61981c"/><path class="cls-5" d="M8.64 24.06a20.54 20.54 0 001.68-1.4c.5-.37 1.1-.54 1.58-.95.81-.69 1.78-1.13 2.61-1.72a9.27 9.27 0 002.63-2.5c.59-1 1.66-1.8 2.08-2.94.3-.83 1.47-6.94 2.85-6.25a2.64 2.64 0 01.57 1.46 7.26 7.26 0 01-.42 1.81 16.69 16.69 0 01-.52 1.85 15.48 15.48 0 01-1.1 1.8A12.91 12.91 0 0020 17a5.48 5.48 0 01-1.23 1.56 22.58 22.58 0 01-2.86 2.61C14 22.93 11.31 23.57 9 24.8c-.47.25-1 .51-1.5.76a3.53 3.53 0 01-1.1.52c-.29-.44.69-.68 1-.86a9.72 9.72 0 011.15-.94"/><path d="M13.06 22.14c.24-.3 1.61-1.08 1.87-1.34.62-.61 1.26-1.15 1.85-1.79a15.81 15.81 0 001.63-2c.38-.58 1.1-1 .76-.6a5.79 5.79 0 00-.4.93 8.94 8.94 0 01-.64.8 6.67 6.67 0 01-.8 1.17 9 9 0 00-.85.72c-.14.16-.24.37-.39.53a4.43 4.43 0 01-.82.55 6.83 6.83 0 01-2.21 1.03zm6.44-6.34a1.34 1.34 0 01.1-.77c0-.23 0-.59.32-.6a1.18 1.18 0 01.15.74 3.59 3.59 0 01-.28.31 1.5 1.5 0 01-.18.36" fill="#c8f092"/><path class="cls-7" d="M23 3.55c-.6-1.25-1.34-1.79-.68-2.32a.61.61 0 00-.32 0 1.1 1.1 0 00-1 1c1.7.49 2.28 2.37 1.79 3.15A1.49 1.49 0 0023 3.55z"/><path d="M23.78 4.76c.29-1.08-.58-3.19-1.45-3.54-.66.53 0 1.06.61 2.31a1.52 1.52 0 01-.13 1.8.69.69 0 01-.31.28C21 6.27 21 7 21 7c2.86-.53 1.92 1.7 2.76.39a2.14 2.14 0 012.35-1c-1.58-1.25-2.65-.39-2.33-1.63z" fill="#5b8433"/><path class="cls-7" d="M23.62 7.65S25 6.19 26.28 6.46c0 0-1.76-1.06-2.66 1.19z"/><path d="M21.59 6.69a1.73 1.73 0 011.6.52 1.2 1.2 0 00-.51-.62.47.47 0 01.09-.83 1.46 1.46 0 00-1.18.93z" fill="#7c9d5c"/><path class="cls-5" d="M23.36 8.71a3.18 3.18 0 01-.11 1 3.41 3.41 0 00.12.78 1 1 0 00.14.72c.41.2.43-.36.45-.56.04-.65.54-1.28.56-1.91a.5.5 0 00-.44-.58c-.22 0-.68 0-.65.33"/></g></g></svg>