<svg xmlns="http://www.w3.org/2000/svg" viewBox="0 0 32 32"><defs><style>.cls-7{fill:#aebf99}</style></defs><g style="isolation:isolate"><path d="M28.22 3A3.72 3.72 0 0027 2.86c-2.2.14-2.67 1.34-3.54 3.33s-1.56 4.63-2.82 4.59c-3-.32-3.71 1.55-5.38 5.2-1.94 4.25-6.05 7.08-8.13 8.58-1.15.83-2.86 2-3.08 3-.18.81.62 1.5 3.46 1.78 11.19 1.1 18.2-9.61 18-14A5.67 5.67 0 0024 11.81c-.44-.26-1.4-1.24-.13-4.72.94-2.59 1.75-3.8 3.46-3.54a3.47 3.47 0 00-.47-.07 9.82 9.82 0 011.14.24c.17.05.56-.63.22-.72z" id="Background_Shadow" data-name="Background &amp; Shadow" style="mix-blend-mode:multiply" fill="#ccc"/><g id="Icon"><path d="M12.74 23.9C6.18 27.87 3.1 28 2.59 27c.22-1 2-2.2 3.16-3 2.13-1.5 6.35-4.34 8.35-8.59s2.63-6.1 7.26-4.87a4 4 0 01.64.13 19.58 19.58 0 01-9.26 13.23z" fill="#2f6704"/><path d="M2.59 27c.52 1 3.71.71 10.27-3.26A19.1 19.1 0 0022 10.66a3.89 3.89 0 013 3.76c.18 4.36-7.37 15.48-18.86 14.38-2.92-.28-3.73-.97-3.55-1.8z" fill="#1e4601"/><path d="M20 11c-.92-.23-2.6-.47-3.18.72A26.3 26.3 0 016.07 24.44c-.25.15-.49.47-.18.38 1.11-.32 3.41-1.4 3.69-1.48 2.22-.58 3.57-2.7 5.29-3.92s3.4-3.27 3.66-5c.23-1.54.63-2.69 1.66-3.12.12-.04.15-.21-.19-.3z" fill="#56792b"/><path d="M24 16.49a16 16 0 01-3.16 5.33A20.79 20.79 0 0110.5 28.1c-.64.15-1.33.14-.64-.1 1.48-.51 3.87-1.41 4.2-2 .49-.83 2.59-1.19 4.14-2.73s1.6-2.14 2.81-3.46a22.33 22.33 0 002.94-4c.18-.27.38-.31.05.68z" fill="#142802"/><path class="cls-7" d="M19 11.17a1.71 1.71 0 00-2 1.12 12.77 12.77 0 01-1.46 3.44c-.56.67 1.37.09 2.06-1.83s1.06-2.6 1.4-2.73z"/><path d="M22.91 7.7c1-1.88 1.47-5 4.38-4.34-1.76-.26-2.59 1-3.56 3.55-1.3 3.49-.85 4.1-.39 4.36l-1.25-.36a7.66 7.66 0 01.82-3.21z" fill="#4d5d0e"/><path d="M23.32 6c.9-2 1.38-3.2 3.68-3.34a4 4 0 011.21.14c.34.09-.05.77-.22.72a4.6 4.6 0 00-.71-.17c-2.91-.62-3.38 2.58-4.35 4.47a7.28 7.28 0 00-.84 3.08l-2.48-.72c1.3.05 2.81-2.18 3.71-4.18z" fill="#879b1f"/><path class="cls-7" d="M14.81 16.83a1.1 1.1 0 00-.58.57c-.17.19-.39.46 0 .53.53.11 1.07-1 .74-1.1"/></g></g></svg>