<svg xmlns="http://www.w3.org/2000/svg" viewBox="0 0 32 32"><g style="isolation:isolate"><path d="M29.6 7.64A4.09 4.09 0 0028 6.33a5.68 5.68 0 00-6.25.77 5.33 5.33 0 00-6.3.9 5.36 5.36 0 00-2.37 3l-.3.1a4.43 4.43 0 00-2-1.13 5.85 5.85 0 00-5.89 1.34c-2.15 1.38-3 3.63-2.29 5.46a3.85 3.85 0 00.69 1.41 4.2 4.2 0 00-.82 4A3.15 3.15 0 003.63 24a4.39 4.39 0 003.63 1.75 6.3 6.3 0 002.74-.66 5.43 5.43 0 002 .4 3.92 3.92 0 004 3.28 5.17 5.17 0 00.68 0 6.18 6.18 0 004.57-1.41 5.39 5.39 0 002-3.7 2.6 2.6 0 00.06-2.14 6.48 6.48 0 003.06-1.59 4.55 4.55 0 002.28-5.21 5.57 5.57 0 002.28-3.54 3.74 3.74 0 00-1.33-3.54zM5.68 22.45A1.67 1.67 0 014.91 21a3.21 3.21 0 011-2.19.24.24 0 00.09-.13 3.88 3.88 0 01.47-.48.26.26 0 00.16-.2L8 17.55a18.08 18.08 0 01-2.17-.31.16.16 0 000-.1A2.2 2.2 0 015.08 15a3.1 3.1 0 011.46-2 3.59 3.59 0 012.44-1 2.57 2.57 0 012.08 1 .18.18 0 00.1.06 8.66 8.66 0 01-.06 1.7l.63-.86a.28.28 0 00.32-.07 3.15 3.15 0 01.54-.27.28.28 0 00.18 0l.21-.09a3.88 3.88 0 00.75 1.46A6.14 6.14 0 009 17.47a5 5 0 00-1.18 2.85A3.94 3.94 0 008 23.25a3.22 3.22 0 01-1.35 0 2.2 2.2 0 01-.97-.8zM22 10a.27.27 0 00.17-.19 2.34 2.34 0 01.42-.4.29.29 0 00.26-.18.3.3 0 00.17-.07 3.71 3.71 0 012.43-.94 2.48 2.48 0 012.08 1 2.11 2.11 0 01.78 1.39A3.33 3.33 0 0126.8 13c.06.12-.06.2-.35.24a13.38 13.38 0 01-2.32.21l1.67.84a1.88 1.88 0 01.21.42.19.19 0 000 .16 2.65 2.65 0 01.27.92A2.75 2.75 0 0124.79 18a4 4 0 01-.56.45 2.48 2.48 0 00.09-1 4.19 4.19 0 00-.17-2.94c-.56-1.64-2.26-2.68-4.51-2.47a4.42 4.42 0 00-1.35 0 3.54 3.54 0 00-1.8-1.04 4 4 0 00-.56-.18 3.4 3.4 0 011.07-1h.06a3 3 0 012.17-.89 3.2 3.2 0 011.87.62.23.23 0 00.15 0l.49 1.29A4.67 4.67 0 0122 10zm-2 11.25a.17.17 0 00.07.16 1.74 1.74 0 01.68 2.14.2.2 0 000 .08 3 3 0 01-.47 1.44 3.59 3.59 0 01-3.17 1.2A2.39 2.39 0 0114.52 25a2.71 2.71 0 01-.13-.82.17.17 0 00-.05-.18 3.26 3.26 0 010-.41c.29-.41 1.21-1.79 1.27-1.89a18.65 18.65 0 01-2.33 1.3c-.22.13-.34.13-.34 0a4.08 4.08 0 00.91-1.84 4.46 4.46 0 003.39-1.48c.19-.12.36-.25.53-.39a2.37 2.37 0 00.58.48l.18.23-.29.06a3.32 3.32 0 01.44.12 4.42 4.42 0 001.18.87zm-4.19-4.5a4.17 4.17 0 00.77.18 4 4 0 01-.58.61zm-1.71.6l.08.06a.26.26 0 00.3 0 1.41 1.41 0 01.47.08.22.22 0 00.24.08l.33.35h-.07a3.13 3.13 0 01-2.84.92 10.21 10.21 0 01-1.4-.53l.06-.06a3.61 3.61 0 012.61-.85.28.28 0 00.25-.05zm-3.91 4.35a2.31 2.31 0 010-1.34 2.81 2.81 0 01.81-1.8 8.58 8.58 0 01.38 1.29A2.72 2.72 0 0110.3 22a2.15 2.15 0 01-.08-.31zm10.86-2.79a2.54 2.54 0 01-.71-.67l-.06-.05a1.47 1.47 0 01-.68-1.36 4.43 4.43 0 00.27-.83 3.86 3.86 0 000-.82v-.09A.24.24 0 0020 15a.18.18 0 000-.15.2.2 0 00-.11-.05v-.18a2.3 2.3 0 011.68.79 2.27 2.27 0 01.32 2.15.21.21 0 000 .08 1.64 1.64 0 01-.3 1.06 3.74 3.74 0 01-.31.31z" data-name="Background &amp; Shadow" style="mix-blend-mode:multiply" fill="#ccc"/><path d="M30.46 10.57a3.74 3.74 0 00-1.31-3.5 4.5 4.5 0 00-3.7-1.75 6.56 6.56 0 00-3.93 1.34 5.48 5.48 0 00-2.45-.58 5.62 5.62 0 00-4 1.61 5.5 5.5 0 00-2.56 3.49 3.89 3.89 0 001.33 3.72 3 3 0 002.86 1.51 2.61 2.61 0 001.16 2.82A4.66 4.66 0 0021.65 21a6.31 6.31 0 004.25-1.71 4.55 4.55 0 002.28-5.21 5.57 5.57 0 002.28-3.51zm-4 2.13a.25.25 0 00-.11.17h-.11a.28.28 0 00-.24.19 2.09 2.09 0 01-.44.25.29.29 0 00-.27.11.23.23 0 000 .1.17.17 0 00.08.18 1.7 1.7 0 01.22.44.19.19 0 000 .16 2.47 2.47 0 01-1.08 3.35h-.06a3.36 3.36 0 01-2.35 1 2.6 2.6 0 01-2.14-1.08l-.06-.05a1.75 1.75 0 01-.53-2.19.18.18 0 000-.17 3 3 0 01.2-.73.23.23 0 00.07-.12.17.17 0 000-.15.25.25 0 00-.3 0 3.55 3.55 0 01-.71.06h-.23a.22.22 0 00-.18-.05 4 4 0 01-.49 0 1.86 1.86 0 01-1.8-.87v-.06a2.19 2.19 0 01-.81-2.13 3 3 0 011.46-1.91h.06a3 3 0 012.17-.89 3.2 3.2 0 011.84.69.23.23 0 00.14 0 2.65 2.65 0 01.48.35.22.22 0 00.29.08.27.27 0 00.17-.19 2.38 2.38 0 01.42-.4.28.28 0 00.26-.18.3.3 0 00.17-.07A3.71 3.71 0 0125 7.6a2.48 2.48 0 012.08 1 2.1 2.1 0 01.77 2 3.18 3.18 0 01-1.38 2.1z" fill="#0e2c02"/><path d="M17.82 18.67a2.51 2.51 0 01-1.07-2.86 3 3 0 01-2.92-1.44c-2.22-1.9-1.67-5.14 1.17-6.93a5.33 5.33 0 016.28-.91c2.48-2 5.89-1.84 7.43.3 2.11 1.79 1.61 4.95-1 6.83a4.3 4.3 0 01-2.14 5.11c-2.46 2.23-6.05 2.23-7.75-.1zM19.09 14a1.66 1.66 0 00-.23 1 1.91 1.91 0 00.61 2.4 3.19 3.19 0 004.86.09 2.69 2.69 0 001.2-3.64c.14.09-1.73-.86-1.85-.93a13.46 13.46 0 002.32-.21c.29 0 .41-.12.35-.24 1.77-1.2 2.1-3.24.71-4.38-1-1.43-3.26-1.46-4.86-.09-.09-.08-.19 0-.26.22a12.62 12.62 0 00-.65 2.06c0-.11-.78-2-.72-1.89a3.37 3.37 0 00-4.38.32c-1.85 1.11-2.18 3.16-.71 4.38a2.31 2.31 0 002.5.95 2.15 2.15 0 001.11-.04z" fill="#3f6e0c"/><path d="M18.11 11.92a3.8 3.8 0 00-3.35-1.64 6.7 6.7 0 00-2.25.4A4.66 4.66 0 009 9.19a6.49 6.49 0 00-4.34 1.72 5.59 5.59 0 00-2.53 3.38A3.91 3.91 0 003 17.81c-1.53 2-1.47 4.37.18 5.61a4.39 4.39 0 003.62 1.76 6.68 6.68 0 004.41-1.77 3.93 3.93 0 002.16-2.8 4.46 4.46 0 003.39-1.48 5.77 5.77 0 002.65-3.7 3.69 3.69 0 00-1.3-3.51zm-2.81 5.63l-.07.06a2.68 2.68 0 01-2.1.85h-.48a.29.29 0 00-.2 0h-.11a3.33 3.33 0 01-.69-.07.27.27 0 00-.31 0 .25.25 0 00-.1.15.18.18 0 000 .12 2.73 2.73 0 01-.06.73.24.24 0 00-.09.17 2.43 2.43 0 01-1.31 2.18h-.07a3.77 3.77 0 01-2.52 1.06 2.32 2.32 0 01-2-1 1.67 1.67 0 01-.72-1.4 3.22 3.22 0 011-2.19.24.24 0 00.07-.14 4 4 0 01.46-.44.26.26 0 00.15-.18.18.18 0 000-.09.2.2 0 00-.15-.13 1.54 1.54 0 01-.4-.31.18.18 0 00-.16-.2.17.17 0 00-.05-.14 2.2 2.2 0 01-.68-2.1 3.09 3.09 0 011.46-2 3.6 3.6 0 012.44-1 2.58 2.58 0 012.08 1 .21.21 0 00.18.07.73.73 0 010 .1.18.18 0 00.18.18 1.12 1.12 0 01.22.36.17.17 0 00.09.19.28.28 0 00.32-.07 3.18 3.18 0 01.53-.31.27.27 0 00.18 0 4.19 4.19 0 011.85-.46 2 2 0 011.81.91 2 2 0 01.78 1.92 3.27 3.27 0 01-1.53 2.18z" fill="#f08200"/><path d="M16.24 18.64A4.23 4.23 0 0112.81 20a3.71 3.71 0 01-2.09 2.85C8.2 25.18 4.6 25.19 3 22.92c-1.64-1.22-1.64-3.52-.07-5.49-1.85-1.93-1.19-5 1.49-6.72 2.37-2.17 5.9-2.21 7.63-.12 2.29-.87 4.56-.44 5.5 1.13 2.19 1.81 1.58 5.04-1.31 6.92zm-5.77-1.06a11.61 11.61 0 001.74.7 3.13 3.13 0 002.79-.92c1.9-1.2 2.3-3.25.85-4.38-.64-1.12-2.3-1.33-4-.51.13-.14-1.15 1.61-1.25 1.73a7.83 7.83 0 000-2c0-.25-.07-.35-.22-.28-1.09-1.4-3.37-1.39-4.89 0-1.78 1.11-2.18 3.16-.85 4.38-.1.09 0 .16.21.2a17.29 17.29 0 002.68.5c-.13.05-2.74.87-2.58.79-1.34 1.36-1.47 3.06-.31 3.88 1 1.49 3.27 1.47 4.89 0A2.67 2.67 0 0011 19.22a10 10 0 00-.53-1.64z" fill="#f0bd1b"/><path d="M22.29 20a3.55 3.55 0 001.58-3 4 4 0 00-.66-3.71 4.6 4.6 0 00-4.06-1.45 4.42 4.42 0 00-.68-.06 5.92 5.92 0 00-4.88 2.87 6.5 6.5 0 00-4.31 1.52 5.22 5.22 0 00-1.94 3.61A3.83 3.83 0 008 23.35a4.69 4.69 0 003.58 1.57 3.92 3.92 0 004 3.28 5.16 5.16 0 00.68 0 6.18 6.18 0 004.57-1.41 5.38 5.38 0 002-3.7 2.71 2.71 0 00-.54-3.09zm-3.07 5.18a3.32 3.32 0 01-2.56.75h-.09a2.59 2.59 0 01-.41 0 2.23 2.23 0 01-2.22-2.37.17.17 0 00-.05-.12 2.61 2.61 0 010-.59v-.05a.17.17 0 00-.12-.2.28.28 0 00-.27.06 2.24 2.24 0 01-.54.07.25.25 0 00-.3 0 .23.23 0 00-.16-.05 2.71 2.71 0 01-2.3-.88 2.14 2.14 0 01-.33-2 2.87 2.87 0 011.06-2 3.61 3.61 0 012.61-.85.28.28 0 00.2-.07l.08.06a.26.26 0 00.3 0 1.44 1.44 0 01.47.08.22.22 0 00.25.08.27.27 0 00.2-.2 2.38 2.38 0 01.23-.5.28.28 0 00.13-.13A3.36 3.36 0 0118.27 14a2.49 2.49 0 01.43 0h.08a2.51 2.51 0 012.29.77 2.27 2.27 0 01.32 2.15.19.19 0 000 .08 2.46 2.46 0 01-1.45 2.13.26.26 0 00-.12.16 4.27 4.27 0 01-.7.47.27.27 0 00-.24.21.18.18 0 00.16.21 2.57 2.57 0 01.54.47.17.17 0 00.06.16 1.74 1.74 0 01.68 2.19.2.2 0 000 .08 3 3 0 01-1.11 2.1z" fill="#730c06"/><path d="M23.71 16.52a3.44 3.44 0 01-1.67 3 2.58 2.58 0 01.59 3 5.64 5.64 0 01-6.29 4.91 3.79 3.79 0 01-4.49-3.24c-3.06 0-5-2.23-4.2-5 .18-2.8 3-5.06 6.14-4.91a5.5 5.5 0 015.4-2.82c3.25-.21 5.36 2.1 4.52 5.06zm-5.91 3c.16 0 2.53-.68 2.34-.65a2.68 2.68 0 001.57-2.35c.58-1.92-.75-3.4-2.84-3.16a3.51 3.51 0 00-3.65 2.21c0-.16.63 2.49.65 2.62a19.93 19.93 0 00-1.85-2c-.2-.15-.34-.16-.4 0a3.61 3.61 0 00-4 3.12c-.56 1.79.77 3.27 2.84 3.16 0 .12.11.12.34 0a18.62 18.62 0 002.31-1.27c-.07.12-1.42 2.15-1.35 2a2.42 2.42 0 002.88 2.52 3.47 3.47 0 004-3.12 1.91 1.91 0 00-.73-2.36 20.93 20.93 0 00-2.12-.72z" fill="#e6340c"/><path d="M4.33 11.27a5.64 5.64 0 016.88-1l-1 .71S8 9.26 4.24 11.66c-.24.16-.47.12.09-.39z" fill="#ffe7a4"/><path d="M20.91 19l.84.39a4.71 4.71 0 001.65-4.52c-.05-.34-.25-.84-.3-.41A7.85 7.85 0 0120.91 19z" fill="#f0746d"/></g></svg>