<svg xmlns="http://www.w3.org/2000/svg" xmlns:xlink="http://www.w3.org/1999/xlink" viewBox="0 0 32 32"><defs><radialGradient id="a" cx="9840.37" cy="2643.67" r="6.58" gradientTransform="matrix(-.08 -.93 -.56 0 2322 9176.88)" gradientUnits="userSpaceOnUse"><stop offset=".81" stop-color="#c19a7b"/><stop offset="1" stop-color="#fff"/></radialGradient><radialGradient id="c" cx="896.95" cy="2642.91" r="6.58" gradientTransform="matrix(.85 -.38 .27 .5 -1479.12 -946.45)" xlink:href="#a"/><radialGradient id="b" cx="5680.25" cy="11968.78" r="4.38" gradientTransform="matrix(0 -1.13 -.43 0 5205.54 6415.49)" gradientUnits="userSpaceOnUse"><stop offset=".14" stop-color="#cfb098"/><stop offset=".6" stop-color="#eadcd1"/><stop offset="1" stop-color="#fff"/></radialGradient><radialGradient id="d" cx="1150.18" cy="-4989.58" r="4.38" gradientTransform="matrix(1.13 0 0 .43 -1285.06 2171.1)" xlink:href="#b"/></defs><g style="isolation:isolate"><path d="M2.23 15.12v.05a3.84 3.84 0 00.24.51s0 .1.08.15a4.36 4.36 0 00.26.39l.19.19.24.29.2.19.27.21.29.19.24.15.29.16.22.1.35.13.19.06.36.11h1.5a1.17 1.17 0 00.22-.12h.07a.62.62 0 00.15-.18v-.05a.6.6 0 00.06-.29.92.92 0 010-.2.94.94 0 00.15-.1l.2-.16a.67.67 0 00.15-.18v-.05a.57.57 0 00.06-.29v-.15a4 4 0 012.67-1 12.87 12.87 0 00-2.09 2.86c-.55.87-1 1.74-1.34 2.38-.6.72-1.75 1.4-1.45 1.77a1.06 1.06 0 00-.53.81.22.22 0 00.07.1l.07.05a1.12 1.12 0 00.37.12 28 28 0 014.89 2l.39.19a32.63 32.63 0 014.84 3 1.25 1.25 0 00.29.21h.07a.24.24 0 00.19 0 .32.32 0 00.12-.14l-.07.06a1.86 1.86 0 00.3-.72.25.25 0 00.19 0 .34.34 0 00.13-.14l-.07.06c.29-.37.19-1.72.54-2.48A21.61 21.61 0 0020 19.91l.08.14.07.13a4.85 4.85 0 01.47 2.08v.49a.65.65 0 00-.25.58 1 1 0 01-.25.26c-.51.34-.29 1.13.36 1.86a3.57 3.57 0 00.3.29l.11.1.29.22.21.14.27.15.3.15.23.1.4.14.2.05.49.09h.15A4.51 4.51 0 0024 27h.09a4.5 4.5 0 00.69-.1 5.13 5.13 0 002.27-1.24c.12-.11.22-.25.34-.37s.28-.29.41-.45a6.25 6.25 0 00.36-.52c.1-.15.2-.31.3-.48s.13-.19.18-.29c0 .1-.12.18-.17.27l.06-.13c.06-.08.11-.17.16-.26s.21-.32.31-.43.14-.2.19-.31c-.05.1-.12.19-.18.28 2.42-4.29 1.29-11.72-7.89-16.44a18.2 18.2 0 00-6.32-2.11C10.9 4 8 4.58 5.61 6.55a9.21 9.21 0 00-2.32 2.9 8.54 8.54 0 00-.78 1.43c0-.12.08-.24.13-.36-.06.14-.1.28-.16.41s-.15.37-.21.55a6.39 6.39 0 00-.18.8c0 .15-.08.29-.1.43a5.13 5.13 0 00.24 2.41zm26.35 8.46z" data-name="Background &amp; Shadow" style="mix-blend-mode:multiply" fill="#ccc"/><path d="M3.55 15.51l.23.16.3.18.2.15.34.1.18.07.36.11h.15l.36.06h.57l.29-.05h.09a1.06 1.06 0 00.23-.11h.07a.7.7 0 00.16-.18.61.61 0 00.07-.27 1.31 1.31 0 01.52-.93 1.66 1.66 0 00-.29.33 3.74 3.74 0 013.09-1.18.12.12 0 010 .12.76.76 0 01-.35.38c-1.68 1.19-3.13 4-3.76 4.93-.5.77-1.92 1.46-1.78 1.89a.22.22 0 00.06.1l.08.06a1.15 1.15 0 00.36.14 27.63 27.63 0 014.68 2.2l.37.21a32.26 32.26 0 014.57 3.26 1.17 1.17 0 00.27.22h.07a.25.25 0 00.19 0 .33.33 0 00.13-.13l-.07.05c.3-.35.28-1.67.66-2.39.54-1 2.26-3.64 2.49-5.68 0-.38.14-.54.25-.53a.12.12 0 00-.09.05.12.12 0 01.15 0 .54.54 0 01.15.17l.07.14.07.13a4.73 4.73 0 01.35 2.06v.4s0 .13-.06.19a1.2 1.2 0 01-.49.67c-.52.31-.35 1.09.25 1.84a3.88 3.88 0 00.28.3l.11.1.27.23.2.15.25.17.29.17.22.11.38.16.19.06a4 4 0 00.48.12h.15a4.08 4.08 0 00.57 0h.22a4.21 4.21 0 00.68 0 5 5 0 002.31-1c.13-.1.23-.23.35-.34s.29-.26.42-.41.26-.32.38-.49.22-.29.32-.45.14-.18.19-.28c-.05.09-.12.16-.18.25 2.6-4.06 1.9-11.39-6.81-16.52a17.87 17.87 0 00-6.05-2.46c-3.79-.61-6.69-.19-9.11 1.6a8.83 8.83 0 00-2.73 3.25c.05-.15.09-.24.15-.35-.07.13-.12.27-.18.4s-.17.35-.24.53a6.72 6.72 0 00-.2.77c0 .14-.1.28-.12.42A5.08 5.08 0 002 13.29v.05a4.15 4.15 0 00.21.51l.05.15a4.19 4.19 0 00.23.39l.13.19.25.3.19.2.24.23zm23 8.59c.08-.09.15-.19.23-.28-.08.09-.15.18-.23.28zM2.18 9.8v.07z" fill="#c19a7b"/><path d="M5.75 5.08c2.42-1.79 5.33-2.2 9.11-1.6a17.85 17.85 0 016.07 2.42c10.13 6 9.44 14.91 5.31 18.23S18 22.65 19.5 21.77s-.13-5.31-.36-3.27-1.94 4.66-2.49 5.68-.24 3.33-1.29 2.19a32.12 32.12 0 00-4.57-3.26 31.91 31.91 0 00-5.06-2.41c-1.5-.37.66-1.22 1.29-2.19s2.09-3.74 3.76-4.93-3-.46-3 1.27-6.23.47-5.33-4.75a8.16 8.16 0 013.3-5.02z" fill="#ffe8d9"/><path d="M27.44 13c-2.72-5.72-9.83-2.16-6.87 5.39 1.5 3.8-2.93 3.44.74 5.93 1.7 1.15 4.5-.32 6.11-3s.87-6.5.02-8.32z" style="mix-blend-mode:multiply" fill="url(#a)"/><path d="M10.17 12.29c-4.05.54-1.59 4.23-5.54 2.23-1.83-.92-1.91-4.09-.3-6.81a6.86 6.86 0 011.74-1.93 2.23 2.23 0 00.7.67 2.1 2.1 0 002 .09 2.84 2.84 0 001 .94 2.54 2.54 0 003.52-.72 2.19 2.19 0 00.3-1.17 1.79 1.79 0 001.09-.81 1.75 1.75 0 00.15-.33c2.79 1.98 1.62 7-4.66 7.84z" style="mix-blend-mode:multiply" fill="url(#c)"/><path d="M26.29 24.07a7.06 7.06 0 001.63-1.9 7.14 7.14 0 01-1.67 2c-3.9 3.14-7.77-1-6.93-2.18-.67 1.25 3.13 5.16 6.97 2.08zM11.15 13.22c.16-.52-2.39-.06-3.16 1 .74-1.15 3.54-1.63 3.16-1zm8.79 8.07c.57-1.21-.25-3.66-.64-3.27.37-.64 1.3 2.04.64 3.27zm-14.16-.64a31.87 31.87 0 015.06 2.41 32 32 0 014.57 3.26c.32.35.52.37.65.2-.13.23-.33.25-.69-.14a32.1 32.1 0 00-4.56-3.26 32.15 32.15 0 00-5.06-2.41c-.52-.13-.6-.31-.46-.54-.09.2.02.36.49.48zM2.47 10c-.84 4.85 4.43 6.27 5.22 5.07C7 16.43 1.58 15 2.42 10.11A7 7 0 013.18 8a6.89 6.89 0 00-.71 2z" fill="#e0cbbc" opacity=".6"/><ellipse cx="22.3" cy="17.28" rx="1.9" ry="4.93" transform="rotate(-4.3 22.29 17.24)" style="mix-blend-mode:multiply" fill="url(#b)"/><ellipse cx="10.83" cy="10.53" rx="4.93" ry="1.9" transform="rotate(-24.7 10.84 10.53)" style="mix-blend-mode:multiply" fill="url(#d)"/><path d="M8 20.18s4.61 1.54 6.4 3.75a16.11 16.11 0 01.76-3.16c1.22-3.34 2.17-7 1.65-7.55s-3.39 2-6 4.71A14 14 0 018 20.18z" fill="#fffaf7"/></g></svg>