<svg xmlns="http://www.w3.org/2000/svg" viewBox="0 0 32 32"><defs><style>.cls-3{fill:#901922}.cls-6{fill:#ed9591}</style></defs><g style="isolation:isolate"><path d="M26.88 7.5c-2.39-2.23-5.33-2.9-7.7-2-1.63.35-5.54 3.69-8.43 6.12-6.2 5.22-6.94 9.25-5.51 12.89a1 1 0 01-1.06-.61c-.43-.67-.62-.27-.33.5.06.17.6.65.66.81.32.9-.86.64-.25 1.3s.6-.61 1 .68-.18-1.53 1.09-.51c2.32 3.37 6.31 4.08 12.36.86 2.26-1.21 8.48-5.71 8.89-6a6.17 6.17 0 001.52-1.6c2.34-3.56 1.33-9.11-2.24-12.44z" id="Background_Shadow" data-name="Background &amp; Shadow" style="mix-blend-mode:multiply" fill="#ccc"/><g id="Icon"><path class="cls-3" d="M9.67 10.13c3-2.5 7-5.93 8.66-6.29S27 20.29 27 20.29s-6.74 4.9-9.15 6.18c-6.78 3.61-11 2.41-13.3-1.89-2.11-4.06-1.94-8.5 5.12-14.45z"/><path d="M23.39 21.07a8.17 8.17 0 01-5.49-2.37c-3.53-3.29-4.54-8.78-2.27-12.23a5.69 5.69 0 014.88-2.63A8.17 8.17 0 0126 6.21c3.53 3.29 4.54 8.79 2.26 12.23a5.69 5.69 0 01-4.88 2.63z" fill="#e87a75"/><path class="cls-3" d="M20.51 4.21a7.8 7.8 0 015.24 2.27c3.4 3.17 4.39 8.45 2.21 11.75a5.32 5.32 0 01-4.56 2.46 7.8 7.8 0 01-5.24-2.27c-3.4-3.18-4.39-8.45-2.21-11.75a5.32 5.32 0 014.56-2.46m0-.75a6.09 6.09 0 00-5.19 2.8C12.94 9.86 14 15.56 17.64 19a8.53 8.53 0 005.75 2.47 6.09 6.09 0 005.19-2.8C31 15 29.92 9.35 26.25 5.93a8.54 8.54 0 00-5.75-2.47z"/><path d="M19.53 11.44c.77.75 1.58.69 1.8.09 1.14-1.2.5-1.64.26-2.66-1-.57-1.72-.78-2.46.65-.3-.13-.13 1.55.4 1.92z" opacity=".5" fill="#901922"/><path class="cls-6" d="M22.73 9.14A1.26 1.26 0 0024.27 9a1.06 1.06 0 00-.41-1.52c-.32-.58-1.08-.8-1.36.1a2.33 2.33 0 00.23 1.56z"/><path class="cls-3" d="M22.09 6.35a.36.36 0 00.54 0 .69.69 0 00-.1-.71c-.15-.47-.47-.2-.69 0a.48.48 0 00.25.71z"/><path class="cls-3" d="M20.2 13.69a.36.36 0 00.54 0 .69.69 0 00-.11-.69c-.15-.47-.47-.2-.69 0a.48.48 0 00.26.69zm1.36 3.71a.36.36 0 00.54 0 .69.69 0 00-.1-.66c-.15-.47-.47-.2-.69 0a.48.48 0 00.25.66zm-5.48-6.66a.57.57 0 00.84.07 1.08 1.08 0 00-.17-1.1c-.24-.71-.75-.33-1.08-.07a.75.75 0 00.41 1.1zm8.04 7.11c.24 0 .41.21.6 0a.88.88 0 00-.12-.85c-.05-.3-.38-.22-.49-.12a.87.87 0 00.01.97z" opacity=".5"/><path class="cls-6" d="M26.2 15.58c.22.18.57.13.59 0 .27-.39.11-.49-.08-.72s-.39-.28-.48-.11a.6.6 0 00-.03.83z"/><path d="M25.64 9.56a2.09 2.09 0 00.69-.07.81.81 0 000-.93.45.45 0 00-.66.12 1.27 1.27 0 00-.03.88zm-.37 1.99a.84.84 0 00.88.12 1.22 1.22 0 000-1.38.67.67 0 00-1 .33.9.9 0 00.12.93z" fill="#f2bb7a" opacity=".6"/><path d="M22.72 16.13c.89 0 1 .45 1.84-.42-.19 0-.15-1.23-.64-1.6-.45-.16-.83-.53-1.27 0-.55.96-.05 1.09.07 2.02zm-5.41-2.84a2 2 0 001.65-.1 1.44 1.44 0 00-.42-1.82.71.71 0 00-1.09-.37c-.57 1-.25 1.41-.14 2.29zm-.5-5.58a.25.25 0 00.46.1c.18-.25.22-.78-.08-.68a.36.36 0 00-.64-.13 1 1 0 00.26.71zm.85 6.83c.13.21.4.26.64-.05a.76.76 0 00-.17-.68.7.7 0 00-.82.17.55.55 0 00.35.56zm4.85 4.72a.81.81 0 001-.19.51.51 0 00-.3-.82c-.21-.45-.51-.47-.8 0a1 1 0 00.1 1.01zm2.59-5.15c.52 0 .62.27 1.09-.25a3.82 3.82 0 00-.38-.95c-.27-.09-.49-.31-.75 0-.32.57-.06.65.04 1.2zm-3.2-1.68a1.16 1.16 0 001-.06.86.86 0 00-.25-1.08.42.42 0 00-.65-.21 1.59 1.59 0 00-.1 1.35zm-.3-3.3a.15.15 0 00.27.06c.1-.15.13-.46 0-.4a.21.21 0 00-.37-.09.62.62 0 00.1.43zm.5 4.04c.08.12.24.16.38 0a.45.45 0 00-.1-.4.41.41 0 00-.49.1.33.33 0 00.21.3zM25 16a.48.48 0 00.59-.12.3.3 0 00-.18-.49c-.13-.27-.3-.28-.47 0A.57.57 0 0025 16zm-4.45-8.57a.29.29 0 00.37.06.71.71 0 000-.65.29.29 0 00-.39.05.44.44 0 00.02.54zm4.5 11.77a.29.29 0 00.37.05.7.7 0 000-.65.29.29 0 00-.39.05.44.44 0 00.02.55zM15.79 13a.29.29 0 00.37.06.7.7 0 000-.65.29.29 0 00-.39.05.44.44 0 00.02.54z" fill="#f6b9ae" opacity=".7"/><path class="cls-3" d="M27 13.54a1.07 1.07 0 001.27.25c.24-.33-.14-.93-.34-1.51-.51-.43-.81-.59-1.05-.14a.91.91 0 00.12 1.4z"/><path d="M27.72 10.09a10.06 10.06 0 01-1-1.68 8 8 0 00-.77-1 10.71 10.71 0 00-2.32-1.85 7.58 7.58 0 00-5.81-.49 3.35 3.35 0 00.9.3c.35.13.73.24 1.07.36a4.09 4.09 0 011.53.69c.68.58.41 1.58.74 2.31a4.12 4.12 0 001.58 1.45c1.05.8 2.16.71 2.36 2 .12.76 1.24 1.58 1 4.87-.09 1.34-1.62 2.78-.48 2.26a5.25 5.25 0 001.67-2.17 9.14 9.14 0 00-.28-6.67" style="mix-blend-mode:screen" fill="#f4bda1" opacity=".5"/><path d="M14.26 7.63s-8.71 4.63-9.75 10.75c-.05.32 0 .63.29.05a23.85 23.85 0 018.84-8 11.45 11.45 0 01.62-2.8z" fill="#af2031"/><path d="M22 22.35s-7 7-12.44 5.12c-.29-.1-.52-.31.1-.37 1.56-.15 5-1 9.73-5.45a7.87 7.87 0 002.61.7z" fill="#7c1623"/><path class="cls-3" d="M4 23.36a1 1 0 01-1.1-.62c-.44-.69-.64-.28-.34.51.07.17.62.67.67.84.36.91-.85.66-.23 1.33s.62-.62 1.06.7-.18-1.57 1.12-.53"/></g></g></svg>