<svg xmlns="http://www.w3.org/2000/svg" viewBox="0 0 32 32"><defs><style>.cls-6{fill:#d8562a}.cls-7{fill:#f1a72a}.cls-8{fill:#f1762a}.cls-9{fill:#fbc652}</style></defs><g style="isolation:isolate"><path d="M22.83 12.84L28 7.52a23.61 23.61 0 01-4.3 1.36l.16-6.2-2.2 4.82-3.52-6.09.56 8.71a8.81 8.81 0 00-3.58-.12 12.58 12.58 0 00-6.74 3.52 15.65 15.65 0 00-2.41 3 13.73 13.73 0 00-1 2 7.67 7.67 0 00.52 7.5 12.29 12.29 0 003.9 3.6 12.37 12.37 0 004.88 1.86 7.65 7.65 0 007-2.82 13.49 13.49 0 001.35-1.84 15.56 15.56 0 001.63-3.59 12.53 12.53 0 00.08-7.59 8.92 8.92 0 00-1.5-2.8z" id="Background_Shadow" data-name="Background &amp; Shadow" style="mix-blend-mode:multiply" fill="#ccc"/><g id="Icon"><path d="M19.4 7.51l4.5-4.97-2.09 6.47-2.05.61-.36-2.11z" fill="#709d38"/><path d="M19.63 10.81l1.16-1.89-2.65-7.51-1.2 9.1 2.69.3z" fill="#84ab55"/><path d="M19 10.4s0-.92 1.52-1.75S28 7.52 28 7.52l-7.59 5.15z" fill="#b8d492"/><path class="cls-6" d="M15.76 15.89l3.43-5.56a8.31 8.31 0 00-5.69-1.07l2.18 6.64h.08z"/><path class="cls-7" d="M10.55 24.32l.05-.08-.07.01.02.07z"/><path class="cls-8" d="M15.68 15.9L13.5 9.26a12.58 12.58 0 00-6.74 3.52L8.16 17z"/><path class="cls-7" d="M15.76 15.89l-.08.01.02.08.06-.09z"/><path class="cls-7" d="M15.68 15.9l-7.52 1.12 2.37 7.23.07-.01 5.1-8.26-.02-.08z"/><path class="cls-6" d="M10.53 24.25l-6.66 1a12.27 12.27 0 003.9 3.6l2.79-4.52zM6.76 12.78a15.64 15.64 0 00-2.41 3 13.71 13.71 0 00-1 2L8.16 17z"/><path class="cls-8" d="M8.16 17l-4.81.72a7.67 7.67 0 00.52 7.5l6.66-1z"/><path class="cls-7" d="M7.76 28.85a12.37 12.37 0 004.88 1.86l-2.09-6.38z"/><path class="cls-9" d="M19.61 27.88L18 23.13l-7.4 1.11-.05.08 2.09 6.38a7.65 7.65 0 006.97-2.82z"/><path class="cls-7" d="M19.61 27.88A13.44 13.44 0 0021 26a15.6 15.6 0 001.63-3.59l-4.63.72zm3.06-13.02a8.29 8.29 0 00-3.48-4.53l-3.43 5.56z"/><path d="M10.6 24.24l7.45-1.11-2.35-7.15-5.1 8.26z" fill="#f8d95c"/><path class="cls-9" d="M15.7 16l2.3 7.13 4.55-.68a12.54 12.54 0 00.08-7.59l-6.91 1z"/><path d="M11.22 29.48s6.08 1.36 8.68-4.32 0-12.39 0-12.39.38 8.23-1.9 11.47a13.05 13.05 0 01-6.78 5.24z" style="mix-blend-mode:screen" fill="#ffcc67"/></g></g></svg>