<svg xmlns="http://www.w3.org/2000/svg" viewBox="0 0 32 32"><defs><style>.cls-4{fill:#edd2dd}</style></defs><g style="isolation:isolate"><path d="M29.08 20.46c-.32-8.6-7.51-11.12-10.47-14.12-.43-.43-1.92-1.22-2.27-1.58a2.45 2.45 0 00-.79-.76 2 2 0 01.1 2.33c-3 3-10.15 5.52-10.47 14.12-.24 6.59 5.19 10 11.73 10h.44c6.54-.04 11.98-3.4 11.73-9.99z" id="Background_Shadow" data-name="Background &amp; Shadow" style="mix-blend-mode:multiply" fill="#ccc"/><g id="Icon"><path d="M28.62 19.45c-.33-8.6-7.68-11.12-10.7-14.12A2 2 0 0118 3a2.48 2.48 0 00-.82.75c-.36.36-.56-.42-.8-1-.25.59-.45 1.37-.8 1a2.5 2.5 0 00-.8-.75 2 2 0 01.1 2.33c-3 3-10.38 5.52-10.7 14.12-.25 6.59 5.31 10 12 10h1.26c6.32-.33 11.42-3.68 11.18-10z" fill="#901947"/><path class="cls-4" d="M17.17 10.58a1.05 1.05 0 00.08.11l.19.17a18.81 18.81 0 001.86 1.43c2.31 1.64 5.19 3.68 5.36 8a5.54 5.54 0 01-1.54 4.26 7.75 7.75 0 01-4.3 2.07c-.44.08-.81 0-.54 0a6.88 6.88 0 004-1.93 5.2 5.2 0 001.36-3.91c-.15-4-2.69-5.86-4.74-7.36-.54-.4-1.06-.78-1.5-1.17l-.22-.25v-1.42z"/><path class="cls-4" d="M17.23 17.76v-2.6l.23.21c.3.26.66.51 1 .77 1.45 1 3.26 2.31 3.37 5a3.49 3.49 0 01-1 2.67A4.43 4.43 0 0119 24.95c-.25.08-.33.06-.13 0a3.18 3.18 0 001-.67 2.66 2.66 0 00.74-2c-.08-2.08-1.46-3.06-2.57-3.84l-.59-.43z"/><path class="cls-4" d="M25.4 25.63a11.3 11.3 0 01-7.27 3c-.23 0-.34-.07-.17-.08a9.86 9.86 0 006.51-2.77 7.13 7.13 0 001.86-5.35c-.2-5.46-3.68-8-6.47-10.08a20.67 20.67 0 01-2.42-2h-.05a1.47 1.47 0 01-.24-.35V6.32a1.66 1.66 0 00.27.35 23 23 0 002.75 2.15c3.16 2.23 7.08 5 7.31 10.94a7.56 7.56 0 01-2.08 5.87z"/><path d="M14.36 6.88S6.5 23 16.1 28.34c0 0-10.32.9-10.84-7.85-.44-7.23 9.1-13.61 9.1-13.61z" fill="#6c1335"/></g></g></svg>