<svg xmlns="http://www.w3.org/2000/svg" viewBox="0 0 32 32"><defs><style>.cls-3{fill:#678a18}.cls-7{fill:#4d6812}</style></defs><g style="isolation:isolate"><path d="M26.75 22s-1.12-.74-3.34-2c.64-.79 8-10 4.12-14.18l-.06-.06-.06-.07c-4.22-3.82-17.8 6.49-20 10.14-2.95 5-2.69 8.23-2 10a.34.34 0 01-.41.37c-.38 0-1.25.15.52 1.89s2.15 1.08 2.11.7a.34.34 0 01.37-.38c1.8.61 5.15 1.13 10-1.93 3.59-2.25 5.52-3.52 7.66-3.92 1.26-.22 1.09-.56 1.09-.56z" id="Background_Shadow" data-name="Background &amp; Shadow" style="mix-blend-mode:multiply" fill="#ccc"/><g id="Icon"><path class="cls-3" d="M4.1 25.86a.34.34 0 00.37-.39l1.22 1.46L7.21 28a.34.34 0 00-.37.39c.05.39-.13 1.08-2-.65s-1.14-1.91-.74-1.88z"/><path d="M13.73 18.51s1.74-3.94-1.37-9.09c0 0 9.92-9 14.46-4.75z" fill="#ffd500"/><path d="M13.73 18.51s3.8-2 9.14.77c0 0 8.37-10.47 3.83-14.73z" fill="#f09100"/><path d="M18.14 11.6c.52-.49 1-1 1.55-1.41L18 8.62c-.51.38.14 2.98.14 2.98zm-.24.23l-1.78-1.67c-.59.51-1.24 3.87-1.21 4.78.96-1.09 1.97-2.14 2.99-3.11zm5.88-4.95c.59-.44 1.12-.82 1.55-1.12L24.54 5c-.54.2-.76 1.88-.76 1.88zm1.61-1.5l1-.67a3.36 3.36 0 00-.44-.29 1.49 1.49 0 00-.56.96zm-3.56 3.01c.59-.48 1.15-.91 1.67-1.3l-1.22-1.14c-.59.29-.45 2.44-.45 2.44zM20 10c.51-.52 1-1 1.57-1.39L20.06 7.2C19.5 7.55 20 10 20 10z" fill="#ffe666"/><path class="cls-7" d="M26.75 22s-6.69-6.57-13-3.45L11.22 21z"/><path class="cls-3" d="M9.44 5.7s7 6.28 4.29 12.81l-2.37 2.63z"/><path class="cls-3" d="M26.08 21.52c-2.5-1.27-8.25-4.75-14.24-1.15l-6.37 6.78s3.86 3.62 11.86-1.62a18.14 18.14 0 017.91-3.24c1.69-.19 1.88-.29.84-.77z"/><path d="M9.79 6.23c1.43 2.42 5.26 7.94 2 14.14l-6.32 6.78s-3.86-3.62.86-11.94a18.15 18.15 0 002.74-8.1c.08-1.7.12-1.88.72-.88z" fill="#89b820"/><path d="M14.32 8.5C13.48 9.15 13 9.61 13 9.61c.36.59 2.08.61 2.65.12zm10-3.84L23.64 4a9.19 9.19 0 00-2.3.46 13.87 13.87 0 002.98.2zM22 5.54l-1-.94a17.35 17.35 0 00-2.11.93 11.08 11.08 0 003.11.01zm3.77-1.22A4.86 4.86 0 0024.13 4l.58.54c.39-.09.74-.17 1.06-.22zm-8.2 3.86L16.35 7c-.66.44-1.26.88-1.76 1.26 0 .03 2.41.32 2.98-.08zm2.1-1.41L18.54 5.7c-.66.36-1.3.74-1.9 1.13 0 0 2.45.29 3.03-.06z" fill="#fe9"/><path d="M20.54 13.85c.46-.55.9-1.1 1.31-1.64l1.67 1.57c-.37.55-2.98.07-2.98.07zm-.22.26l1.78 1.67c-.47.62-3.79 1.48-4.69 1.51 1.03-1.03 2-2.11 2.91-3.18zm4.57-6.19c.4-.62.75-1.16 1-1.62l.81.7c-.15.63-1.81.92-1.81.92zm1.4-1.7c.32-.53.53-.9.6-1a3.29 3.29 0 01.32.42 1.49 1.49 0 01-.92.58zM23.5 10c.44-.62.84-1.21 1.19-1.75l1.22 1.15c-.25.6-2.41.6-2.41.6zm-1.45 1.94c.44-.58.86-1.15 1.25-1.7l1.5 1.41c-.31.59-2.75.29-2.75.29z" fill="#e07f00"/><path d="M23.87 17.47c-.6.87-1 1.41-1 1.41-.61-.32-.74-2-.29-2.63zm3.21-10.23l.68.64a9.1 9.1 0 01-.31 2.32 13.79 13.79 0 01-.37-2.96zm-.74 2.4l1 .94a17.19 17.19 0 01-.8 2.16 11.08 11.08 0 01-.2-3.1zm.98-3.87a4.85 4.85 0 01.42 1.62l-.58-.54c.07-.39.13-.76.16-1.08zM24 14.2l1.23 1.15c-.4.69-.8 1.31-1.15 1.83-.02 0-.46-2.41-.08-2.98zm1.26-2.2l1.14 1.07c-.32.69-.66 1.35-1 2-.01-.07-.45-2.46-.14-3.07z" fill="#c46b00"/><path d="M5.61 26.15s-1.83-2.84 0-8.15c.22-.64.68-1.44.54-.59-.33 2-.62 5.46 1 7z" fill="#b8d479"/><path class="cls-7" d="M6.56 27s2.94 1.65 8.14-.55c.62-.26 1.4-.77.55-.58-1.95.45-5.41 1-7.08-.6z"/></g></g></svg>