<svg xmlns="http://www.w3.org/2000/svg" xmlns:xlink="http://www.w3.org/1999/xlink" viewBox="0 0 32 32"><defs><radialGradient id="radial-gradient" cx="1238.15" cy="-4109.71" r="1.12" gradientTransform="matrix(.58 -.64 .77 .64 2446.79 3414.58)" gradientUnits="userSpaceOnUse"><stop offset="0" stop-color="#ffb56b"/><stop offset=".29" stop-color="#f7a257"/><stop offset=".85" stop-color="#e57526"/></radialGradient><radialGradient id="radial-gradient-2" cx="7115.16" cy="-5288.85" r="1.12" gradientTransform="matrix(-.24 .83 .93 .34 6683.89 -4087.44)" xlink:href="#radial-gradient"/><radialGradient id="radial-gradient-3" cx="8601.55" cy="-4461.06" r="1.12" gradientTransform="matrix(-.5 .7 .82 .57 8045.85 -3379.56)" xlink:href="#radial-gradient"/><radialGradient id="radial-gradient-4" cx="-1145.69" cy="-2182.56" r=".79" gradientTransform="matrix(.8 -.2 .3 .72 1616.96 1340.96)" xlink:href="#radial-gradient"/><radialGradient id="radial-gradient-5" cx="85.89" cy="-4635.38" r=".61" gradientTransform="matrix(.6 -.5 .58 .58 2657.54 2750.56)" xlink:href="#radial-gradient"/><radialGradient id="radial-gradient-6" cx="-263.08" cy="3759.45" r=".61" gradientTransform="matrix(0 .9 -.7 0 2697.49 288.82)" xlink:href="#radial-gradient"/><radialGradient id="radial-gradient-7" cx="1977.87" cy="-6255.52" r=".61" gradientTransform="matrix(.48 .73 .67 -.32 3259.68 -3439.19)" xlink:href="#radial-gradient"/><radialGradient id="radial-gradient-8" cx="6284.38" cy="-6833.47" r=".61" gradientTransform="matrix(-.1 .78 .8 .2 6132 -3589.99)" xlink:href="#radial-gradient"/><linearGradient id="linear-gradient" x1="1690.4" y1="-4188.26" x2="1689.63" y2="-4188.05" gradientTransform="rotate(-49 5470.29 -251.09)" gradientUnits="userSpaceOnUse"><stop offset="0" stop-color="#fed795"/><stop offset="1"/></linearGradient><linearGradient id="linear-gradient-2" x1="6668.22" y1="-5187.54" x2="6667.44" y2="-5187.33" gradientTransform="matrix(-.3 .95 .95 .3 7039.55 -4675.98)" xlink:href="#linear-gradient"/><linearGradient id="linear-gradient-3" x1="8144.31" y1="-4496.6" x2="8143.56" y2="-4496.4" gradientTransform="matrix(-.58 .8 .8 .58 8409.49 -3982.08)" xlink:href="#linear-gradient"/><linearGradient id="linear-gradient-4" x1="3038.88" y1="-4998.69" x2="3038.18" y2="-4998.5" gradientTransform="rotate(-65.8 5411.38 -134.4)" xlink:href="#linear-gradient"/><linearGradient id="linear-gradient-5" x1="5221.28" y1="-5418.5" x2="5220.72" y2="-5418.35" gradientTransform="rotate(-89.2 5370.71 -65.4)" xlink:href="#linear-gradient"/><linearGradient id="linear-gradient-6" x1="-118.43" y1="-1400.57" x2="-119.05" y2="-1400.41" gradientTransform="matrix(.72 .7 -.7 .72 -868.08 1109.2)" xlink:href="#linear-gradient"/><linearGradient id="linear-gradient-7" x1="6532.74" y1="-5226.03" x2="6532.18" y2="-5225.89" gradientTransform="matrix(-.3 .96 .96 .3 6915.18 -4709.74)" xlink:href="#linear-gradient"/><linearGradient id="linear-gradient-8" x1="9596.42" y1="-3054.1" x2="9595.87" y2="-3053.96" gradientTransform="rotate(147.3 5256.27 144.16)" xlink:href="#linear-gradient"/><style>.cls-3{fill:#981a0c}.cls-6{fill:#ec5332;mix-blend-mode:screen}</style></defs><g style="isolation:isolate"><path d="M29.91 12.7c-.4-1.61-2.56-6.7-5-7.41l-2.31.39-.33.22-8.1 5.92-3.08 2.25-6 4.38-1 .76-.59.43c-1.59 1.85 8.94 15 19.53 8.82a12.85 12.85 0 003.27-2.62 13.19 13.19 0 003.61-13.14z" id="Background_Shadow" data-name="Background &amp; Shadow" style="mix-blend-mode:multiply" fill="#ccc"/><g id="Icon"><path class="cls-3" d="M25.1 24.45a13.28 13.28 0 003.65-13.22c-.4-1.62-2.57-6.74-5-7.45l-2.33.39-.33.23z"/><path d="M2.16 18.22l18.9-13.83s13.78 15.14.74 22.69C11.15 33.26.56 20.07 2.16 18.22z" fill="#b91a0c"/><path d="M2.75 17.78L20.34 4.93s13.14 12.94 1 21.29c-9.49 6.53-20.09-6.72-18.59-8.44z" fill="#e6220c"/><path class="cls-6" d="M3.8 17L19.22 5.75s10.7 10.34.07 17.66C11 29.13 2.48 18.53 3.8 17z"/><path class="cls-3" d="M9.16 18.38a3.93 3.93 0 00-.81-1.3.94.94 0 00-1.12.35 2.36 2.36 0 00-.09 2c.5 1.51 4.55 3.1 5.24 3.22a8.2 8.2 0 006.22-2.21 8.71 8.71 0 002.56-3.84 12.63 12.63 0 00-.12-4 3.86 3.86 0 00-1.37-2.37 3.85 3.85 0 00-2.46.16A5.06 5.06 0 0015 12.22a.88.88 0 00.32 1.41c1.39.53 1.47 0 1.62.22s-.49.35-.22 1.17c.43 1.31 1.63 1.1 1.51 1.3s-1.42 0-2 1 .2 1.51 0 1.72-.6-1-1.63-.39l-.7.37c-.89.5-.24 1.76-.49 1.8s-.11-1.32-1.05-1.1-1.36.49-2 .09a3.3 3.3 0 01-1.2-1.43z"/><path d="M13.12 21.59a1.19 1.19 0 01-.24-.15 1.07 1.07 0 01-.43-.7v-.17l-.28.08a2.29 2.29 0 01-2-.11 3.74 3.74 0 01-1.37-1.63 3.84 3.84 0 00-.42-.77 1.08 1.08 0 00-.26.21 2 2 0 000 1.28c.31.94 3.56 2.35 4.2 2.46a2 2 0 001.11 0 .43.43 0 00-.08-.52 1.07 1.07 0 00-.23.02zm5.63-4.64a1.05 1.05 0 01-.85.39 1.2 1.2 0 00-1 .49.7.7 0 000 .74.87.87 0 010 .8.93.93 0 01-.22.31 1.08 1.08 0 01-.36 0 1 1 0 01-.65-.35c-.21-.21-.23-.22-.45-.1l-.35.19-.29.15a.3.3 0 00-.12.12.83.83 0 00-.06.47v.19a1 1 0 01-.06.66 2.57 2.57 0 01-.33.26.44.44 0 00.12.52A5.84 5.84 0 0018 19.93a10.54 10.54 0 001.69-2.07 1.61 1.61 0 00.45-1.08 2.49 2.49 0 00-1.3-.05.44.44 0 00-.09.22zm-.9-6.13a4.13 4.13 0 00-1.77 1.4.5.5 0 00-.11.41 1.21 1.21 0 00.86.14.85.85 0 011 .35.7.7 0 010 .76l-.09.12-.05.07a.25.25 0 000 .24.81.81 0 00.68.61 1 1 0 01.66.45.77.77 0 00.14.33 1.45 1.45 0 001.4-.26c.45-1.15-1.21-1.84-1.41-2.71s.57-2 .4-2.1a3 3 0 00-1.71.19z" style="mix-blend-mode:screen" fill="#fff" opacity=".1"/><path d="M19.85 16.32c0 .22-.43.39-1 .38a1.19 1.19 0 01-1.11-.43c0-.22.43-.39 1-.38a1.18 1.18 0 011.11.43z" fill="url(#radial-gradient)"/><path d="M19.67 16.29c0 .15-.29.26-.67.25a.78.78 0 01-.74-.28c0-.15.28-.26.67-.25a.79.79 0 01.74.28z" style="mix-blend-mode:screen" fill="url(#linear-gradient)"/><path d="M17.24 20.64c.2-.09.11-.57-.2-1.08a1.2 1.2 0 00-.93-.75c-.2.09-.11.57.2 1.08a1.19 1.19 0 00.93.75z" fill="url(#radial-gradient-2)"/><path d="M17.12 20.5c.13-.06.07-.38-.13-.71a.78.78 0 00-.62-.49c-.13.06-.08.38.13.71a.79.79 0 00.62.49z" style="mix-blend-mode:screen" fill="url(#linear-gradient-2)"/><path d="M13.7 22.18c.23 0 .3-.49.15-1a1.13 1.13 0 00-.69-.94c-.23 0-.3.49-.15 1a1.13 1.13 0 00.69.94z" fill="url(#radial-gradient-3)"/><path d="M13.62 22c.15 0 .2-.33.1-.69a.75.75 0 00-.46-.62c-.15 0-.2.33-.1.69a.75.75 0 00.46.62z" style="mix-blend-mode:screen" fill="url(#linear-gradient-3)"/><path d="M18.43 13.51c.09.2-.21.46-.66.58a.91.91 0 01-1-.14c-.09-.2.21-.46.67-.58a.91.91 0 01.99.14z" fill="url(#radial-gradient-4)"/><path d="M18.28 13.51c.06.13-.17.31-.5.4a.69.69 0 01-.71-.08c-.06-.13.17-.31.5-.4a.69.69 0 01.71.08z" style="mix-blend-mode:screen" fill="url(#linear-gradient-4)"/><path d="M16.5 12.45a.51.51 0 01-.25.63.61.61 0 01-.7.18.51.51 0 01.25-.62.6.6 0 01.7-.19z" fill="url(#radial-gradient-5)"/><path d="M16.4 12.5a.38.38 0 01-.2.44.45.45 0 01-.5.15.38.38 0 01.2-.44.45.45 0 01.5-.15z" style="mix-blend-mode:screen" fill="url(#linear-gradient-5)"/><ellipse cx="17.54" cy="17.91" rx=".27" ry=".72" transform="rotate(-57.3 17.54 17.91)" fill="url(#radial-gradient-6)"/><ellipse cx="17.61" cy="17.93" rx=".18" ry=".53" transform="rotate(-57.2 17.62 17.93)" style="mix-blend-mode:screen" fill="url(#linear-gradient-6)"/><path d="M15.14 20.64c.14-.07.09-.38-.12-.7a.74.74 0 00-.63-.46c-.14.07-.09.38.12.7a.74.74 0 00.63.46z" fill="url(#radial-gradient-7)"/><path d="M15.06 20.56c.1 0 0-.27-.11-.51a.56.56 0 00-.45-.35c-.09 0 0 .27.11.51a.56.56 0 00.45.35z" style="mix-blend-mode:screen" fill="url(#linear-gradient-7)"/><path d="M11.82 21.38c.17 0 .34-.2.39-.55a.62.62 0 00-.21-.69c-.17 0-.34.21-.39.55a.62.62 0 00.21.69z" fill="url(#radial-gradient-8)"/><path d="M11.81 21.27c.11 0 .23-.15.27-.41a.47.47 0 00-.14-.5c-.11 0-.23.15-.27.41a.47.47 0 00.14.5z" style="mix-blend-mode:screen" fill="url(#linear-gradient-8)"/><path class="cls-6" d="M15.46 13.95c.66 1-1.43 3.56-1.43 3.56s-3.17 1-3.84.07 0-2.56 1.43-3.56 3.17-1.02 3.84-.07z"/></g></g></svg>