<svg id="Icon" xmlns="http://www.w3.org/2000/svg" viewBox="0 0 32 32"><defs><style>.cls-2{fill:#999}.cls-6{fill:#679311}</style></defs><ellipse cx="15.46" cy="12.72" rx="12.68" ry="4.08" transform="rotate(-45 15.461 12.726)" fill="#fff"/><ellipse class="cls-2" cx="16.19" cy="13.02" rx="13.08" ry="4.21" transform="rotate(-45.01 16.18 13.024)"/><path d="M25.24 2.18c-1.8-1.8-7.81 1.28-13.42 6.89S3.11 20.69 4.92 22.5c4.42 4.41 14.35 5.25 20-.36S30.07 7 25.24 2.18zm-6.9 13.42c-5 5-10.26 7.67-11.85 6.08s1.13-6.9 6.08-11.85 10.26-7.67 11.86-6.08-1.13 6.9-6.09 11.85z" fill="#e6e6e6"/><path class="cls-2" d="M20 18c.56.55 2 1.73 2.85 2.43a1.11 1.11 0 001.42 0A13.45 13.45 0 0029 12.72a13.67 13.67 0 01-7.37 11.85A15 15 0 016 23.46c4.81-.23 9.79-3.79 11.87-5.46A1.49 1.49 0 0120 18z"/><path d="M11.87 20.77c-2.72 1.44-2.67 4-2.37 6.07a1 1 0 11-2.06.29c0-.74.41-1.82 0-2.78s-1.23-.75-2.1.61.11 3.09.51 3.71.46 1.9-.23 2.17-1.54-.51-.91-2.05-1.46-3.95-1.23-6.6a6.53 6.53 0 014.66-5.6c3.67-1.33 8.81-1.33 12.73-3.77a31.4 31.4 0 01-9 7.95z" fill="#f2f7ed"/><path d="M4.16 22.3a5.35 5.35 0 013.4-4.92c1.41-.64 5.19-1.64 5-1.28a22.41 22.41 0 01-2 1.43c-1 .78-2.23 2.12-2.72 2.5-1.71 1.33-.47-1.11-1.65-.73-.93.31-1.53 1.15-1.89 3.21-.01.23-.15.34-.14-.21zm3.76 4.03s-.46 1.44.49 1.33c.46-.06-.51-1.05-.49-1.33zm3.64-6.44l.23-.19.62-.49.89-.66 1-.75c.35-.25.7-.51 1-.75s.63-.47.89-.66.47-.36.62-.48l.25-.18-.12.27c-.13.14-.3.36-.52.6s-.52.49-.82.77-.66.53-1 .8-.72.5-1.07.71-.68.41-1 .56c-.53.28-.97.45-.97.45z" fill="#c5e36d"/><path class="cls-6" d="M13.69 14.37a3 3 0 00-2 .71A3 3 0 0011 17a3 3 0 002-.71 3 3 0 00.69-1.92z"/><path d="M12.11 12.55a3.67 3.67 0 00-1.59 2A3.68 3.68 0 0011 17a3.68 3.68 0 001.6-2 3.68 3.68 0 00-.49-2.45z" fill="#89c417"/><path d="M15.17 16a1.68 1.68 0 00-1.15.19 1.69 1.69 0 00-.59 1 1.68 1.68 0 001.15-.19 1.69 1.69 0 00.59-1z" fill="#9ed00c"/><circle class="cls-6" cx="8.24" cy="21.46" r=".33"/><circle class="cls-6" cx="10.56" cy="20.99" r=".26"/><circle class="cls-6" cx="8.73" cy="20.73" r=".26"/><circle class="cls-6" cx="8.47" cy="22.89" r=".33"/><circle class="cls-6" cx="9.35" cy="21.46" r=".33"/></svg>